HIERARCHY
ROOT Hips
{
	OFFSET 0.000000 0.000000 0.000000
	CHANNELS 6 Xposition Yposition Zposition Zrotation Yrotation Xrotation 
	JOINT LHipJoint
	{
		OFFSET 0.000000 0.000000 0.000000
		CHANNELS 3 Zrotation Yrotation Xrotation
		JOINT LeftUpLeg
		{
			OFFSET 1.363060 -1.794630 0.839290
			CHANNELS 3 Zrotation Yrotation Xrotation
			JOINT LeftLeg
			{
				OFFSET 2.448110 -6.726130 0.000000
				CHANNELS 3 Zrotation Yrotation Xrotation
				JOINT LeftFoot
				{
					OFFSET 2.562200 -7.039590 0.000000
					CHANNELS 3 Zrotation Yrotation Xrotation
					JOINT LeftToeBase
					{
						OFFSET 0.157640 -0.433110 2.322550
						CHANNELS 3 Zrotation Yrotation Xrotation
						End Site
						{
							OFFSET 0.000000 0.000000 0.000000
						}
					}
				}
			}
		}
	}
	JOINT RHipJoint
	{
		OFFSET 0.000000 0.000000 0.000000
		CHANNELS 3 Zrotation Yrotation Xrotation
		JOINT RightUpLeg
		{
			OFFSET -1.305520 -1.794630 0.839290
			CHANNELS 3 Zrotation Yrotation Xrotation
			JOINT RightLeg
			{
				OFFSET -2.542530 -6.985550 0.000000
				CHANNELS 3 Zrotation Yrotation Xrotation
				JOINT RightFoot
				{
					OFFSET -2.568260 -7.056230 0.000000
					CHANNELS 3 Zrotation Yrotation Xrotation
					JOINT RightToeBase
					{
						OFFSET -0.164730 -0.452590 2.363150
						CHANNELS 3 Zrotation Yrotation Xrotation
						End Site
						{
							OFFSET 0.000000 0.000000 0.000000
						}
					}
				}
			}
		}
	}
	JOINT LowerBack
	{
		OFFSET 0.000000 0.000000 0.000000
		CHANNELS 3 Zrotation Yrotation Xrotation
		JOINT Spine
		{
			OFFSET 0.028270 2.035590 -0.193380
			CHANNELS 3 Zrotation Yrotation Xrotation
			JOINT Spine1
			{
				OFFSET 0.056720 2.048850 -0.042750
				CHANNELS 3 Zrotation Yrotation Xrotation
				JOINT Neck
				{
					OFFSET 0.000000 0.000000 0.000000
					CHANNELS 3 Zrotation Yrotation Xrotation
					JOINT Neck1
					{
						OFFSET -0.054170 1.746240 0.172020
						CHANNELS 3 Zrotation Yrotation Xrotation
						JOINT Head
						{
							OFFSET 0.104070 1.761360 -0.123970
							CHANNELS 3 Zrotation Yrotation Xrotation
							End Site
							{
								OFFSET 0.000000 0.000000 0.000000
							}
						}
					}
				}
				JOINT LeftShoulder
				{
					OFFSET 0.000000 0.000000 0.000000
					CHANNELS 3 Zrotation Yrotation Xrotation
					JOINT LeftArm
					{
						OFFSET 3.362410 1.200890 -0.311210
						CHANNELS 3 Zrotation Yrotation Xrotation
						JOINT LeftForeArm
						{
							OFFSET 4.983000 -0.000000 -0.000000
							CHANNELS 3 Zrotation Yrotation Xrotation
							JOINT LeftHand
							{
								OFFSET 3.483560 -0.000000 -0.000000
								CHANNELS 3 Zrotation Yrotation Xrotation
								JOINT LeftFingerBase
								{
									OFFSET 0.000000 0.000000 0.000000
									CHANNELS 3 Zrotation Yrotation Xrotation
									JOINT LeftHandIndex1
									{
										OFFSET 0.715260 -0.000000 -0.000000
										CHANNELS 3 Zrotation Yrotation Xrotation
										End Site
										{
											OFFSET 0.000000 0.000000 0.000000
										}
									}
								}
								JOINT LThumb
								{
									OFFSET 0.000000 0.000000 0.000000
									CHANNELS 3 Zrotation Yrotation Xrotation
									End Site
									{
										OFFSET 0.000000 0.000000 0.000000
									}
								}
							}
						}
					}
				}
				JOINT RightShoulder
				{
					OFFSET 0.000000 0.000000 0.000000
					CHANNELS 3 Zrotation Yrotation Xrotation
					JOINT RightArm
					{
						OFFSET -3.136600 1.374050 -0.404650
						CHANNELS 3 Zrotation Yrotation Xrotation
						JOINT RightForeArm
						{
							OFFSET -5.241900 -0.000000 -0.000000
							CHANNELS 3 Zrotation Yrotation Xrotation
							JOINT RightHand
							{
								OFFSET -3.444170 -0.000000 -0.000000
								CHANNELS 3 Zrotation Yrotation Xrotation
								JOINT RightFingerBase
								{
									OFFSET 0.000000 0.000000 0.000000
									CHANNELS 3 Zrotation Yrotation Xrotation
									JOINT RightHandIndex1
									{
										OFFSET -0.622530 -0.000000 -0.000000
										CHANNELS 3 Zrotation Yrotation Xrotation
										End Site
										{
											OFFSET 0.000000 0.000000 0.000000
										}
									}
								}
								JOINT RThumb
								{
									OFFSET 0.000000 0.000000 0.000000
									CHANNELS 3 Zrotation Yrotation Xrotation
									End Site
									{
										OFFSET 0.000000 0.000000 0.000000
									}
								}
							}
						}
					}
				}
			}
		}
	}
}
MOTION
Frames: 8
Frame Time: 0.033333
-1.726805 16.377137 23.744609 2.764499 3.211428 8.343616 -4.123113 13.533931 -2.643536 -21.701039 -4.717463 -9.422889 -14.032529 -8.374732 -21.993904 1.864668 14.212074 30.842418 0.000000 0.000000 0.000000 10.920354 -8.870561 5.579101 2.790245 5.878753 -11.008719 -2.076921 -19.574906 48.320852 13.308401 -21.749058 10.550933 0.000000 0.000000 0.000000 -4.092076 -0.343437 3.126146 7.191952 -1.435570 11.602398 -2.344773 0.046040 -17.493254 1.826213 -0.091884 -4.140749 0.690190 0.040596 0.402987 0.000000 0.000000 0.000000 -5.215060 15.710640 9.791959 -65.805727 -1.642693 20.580979 -35.354200 -57.303165 0.638517 -2.523188 -8.775367 0.319193 -2.545191 -8.784265 0.000000 0.000000 0.000000 0.000000 0.000000 0.000000 0.000000 1.026699 -19.594704 7.751955 57.148157 3.334071 14.299995 27.731953 54.079811 0.170323 0.150810 7.236288 0.084699 0.145340 7.238400 0.000000 0.000000 0.000000 0.000000 0.000000 0.000000 0.000000 
-1.738474 16.404546 23.944797 3.119458 3.075158 8.365093 -3.710028 13.727780 -2.832829 -22.669928 -4.683382 -8.945785 -13.417593 -7.935570 -20.444760 1.377530 12.528592 27.435474 0.000000 0.000000 0.000000 10.853665 -9.011375 5.905909 2.463595 5.758913 -10.922252 -2.182108 -19.397617 47.931189 13.627594 -23.356764 12.760278 0.000000 0.000000 0.000000 -4.132135 -0.340648 2.983253 6.637169 -1.465805 11.780108 -2.150776 -0.010843 -17.242599 1.921178 -0.112261 -4.226816 0.637192 0.037255 0.355145 0.000000 0.000000 0.000000 -5.003317 15.474038 9.761124 -65.921686 -1.746834 20.842455 -34.826165 -58.270201 0.644806 -2.433814 -9.065209 0.322268 -2.455593 -9.074376 0.000000 0.000000 0.000000 0.000000 0.000000 0.000000 0.000000 0.899036 -19.383105 7.758149 57.497466 3.366092 14.568726 27.525196 55.017247 0.178323 0.148214 7.449967 0.088662 0.142481 7.452169 0.000000 0.000000 0.000000 0.000000 0.000000 0.000000 0.000000 
-1.749492 16.433791 24.142050 3.452083 2.939643 8.388155 -3.351475 13.926670 -3.030730 -23.573359 -4.664409 -8.536836 -12.766069 -7.460301 -18.816359 0.969152 10.884497 24.137114 0.000000 0.000000 0.000000 10.824141 -9.154434 6.238726 2.115927 5.619915 -10.847217 -2.285871 -19.209558 47.494774 13.875002 -24.946338 14.910455 0.000000 0.000000 0.000000 -4.178144 -0.342192 2.850488 6.132846 -1.494387 11.935080 -1.972454 -0.065195 -17.006270 2.010238 -0.131026 -4.307655 0.587414 0.034151 0.310781 0.000000 0.000000 0.000000 -4.805466 15.251495 9.733733 -66.030164 -1.843342 21.073378 -34.308017 -59.161812 0.650030 -2.343454 -9.333630 0.324808 -2.364907 -9.343037 0.000000 0.000000 0.000000 0.000000 0.000000 0.000000 0.000000 0.776904 -19.183529 7.762760 57.823517 3.394570 14.816451 27.315795 55.887674 0.185893 0.143658 7.649606 0.092410 0.137669 7.651892 0.000000 0.000000 0.000000 0.000000 0.000000 0.000000 0.000000 
-1.758642 16.464351 24.335638 3.760000 2.805172 8.413665 -3.050446 14.130713 -3.233586 -24.402279 -4.659014 -8.197823 -12.102430 -6.951732 -17.126509 0.632535 9.307711 20.984732 0.000000 0.000000 0.000000 10.830057 -9.299020 6.576330 1.750214 5.465862 -10.785001 -2.391458 -19.011953 47.021737 14.041967 -26.495031 16.986750 0.000000 0.000000 0.000000 -4.227642 -0.348324 2.726485 5.678527 -1.521965 12.068917 -1.809380 -0.117062 -16.785030 2.093821 -0.148359 -4.384280 0.540311 0.031233 0.269819 0.000000 0.000000 0.000000 -4.621525 15.043376 9.709508 -66.131402 -1.932325 21.275083 -33.806548 -59.978392 0.654259 -2.253642 -9.580423 0.326849 -2.274682 -9.590042 0.000000 0.000000 0.000000 0.000000 0.000000 0.000000 0.000000 0.660176 -18.996362 7.766230 58.126413 3.419898 15.042933 27.107483 56.690646 0.192985 0.137499 7.834755 0.095920 0.131263 7.837118 0.000000 0.000000 0.000000 0.000000 0.000000 0.000000 0.000000 
-1.765952 16.495679 24.524831 4.041791 2.670475 8.442376 -2.806165 14.337239 -3.437694 -25.152061 -4.666274 -7.926147 -11.434943 -6.418358 -15.399339 0.359414 7.816912 18.008776 0.000000 0.000000 0.000000 10.868965 -9.443422 6.916454 1.370531 5.301214 -10.735317 -2.495334 -18.806903 46.521751 14.126717 -27.983819 18.974671 0.000000 0.000000 0.000000 -4.280111 -0.358716 2.610423 5.274881 -1.548708 12.182586 -1.661458 -0.166078 -16.580156 2.172249 -0.164376 -4.457571 0.495483 0.028464 0.232232 0.000000 0.000000 0.000000 -4.451970 14.850670 9.688299 -66.225467 -2.013543 21.448543 -33.329629 -60.718129 0.657567 -2.166182 -9.804732 0.328428 -2.186742 -9.814532 0.000000 0.000000 0.000000 0.000000 0.000000 0.000000 0.000000 0.549077 -18.822356 7.769043 58.405386 3.442352 15.247319 26.904483 57.423378 0.199532 0.130133 8.004455 0.099159 0.123660 8.006887 0.000000 0.000000 0.000000 0.000000 0.000000 0.000000 0.000000 
-1.771021 16.527348 24.709019 4.296548 2.534081 8.474844 -2.617477 14.543313 -3.639550 -25.818425 -4.685528 -7.719341 -10.776472 -5.866489 -13.654463 0.141666 6.426588 15.227901 0.000000 0.000000 0.000000 10.937388 -9.585906 7.257138 0.981058 5.130735 -10.697956 -2.596746 -18.595661 46.004054 14.128281 -29.395355 20.867423 0.000000 0.000000 0.000000 -4.333915 -0.372951 2.500958 4.919827 -1.574669 12.277843 -1.527833 -0.211987 -16.391445 2.246119 -0.179253 -4.528478 0.452408 0.025802 0.197737 0.000000 0.000000 0.000000 -4.296252 14.673214 9.669790 -66.312929 -2.087238 21.596226 -32.881258 -61.384559 0.660065 -2.082221 -10.007357 0.329604 -2.102252 -10.017310 0.000000 0.000000 0.000000 0.000000 0.000000 0.000000 0.000000 0.443268 -18.661006 7.771675 58.661447 3.462364 15.430351 26.709420 58.088246 0.205524 0.121916 8.158980 0.102122 0.115217 8.161475 0.000000 0.000000 0.000000 0.000000 0.000000 0.000000 0.000000 
-1.773287 16.558901 24.888114 4.523894 2.394412 8.511300 -2.480639 14.744260 -3.838036 -26.399592 -4.713914 -7.570447 -10.141041 -5.301065 -11.908862 -0.028467 5.144776 12.644956 0.000000 0.000000 0.000000 11.032525 -9.723352 7.597288 0.584152 4.958118 -10.671368 -2.695622 -18.379817 45.476103 14.048272 -30.716616 22.664342 0.000000 0.000000 0.000000 -4.390100 -0.390614 2.398159 4.614787 -1.599795 12.355076 -1.408594 -0.254285 -16.220399 2.315666 -0.193050 -4.597697 0.410797 0.023222 0.166298 0.000000 0.000000 0.000000 -4.155155 14.512289 9.653954 -66.393785 -2.152885 21.719086 -32.469257 -61.974684 0.661847 -2.003654 -10.187132 0.330425 -2.023130 -10.197210 0.000000 0.000000 0.000000 0.000000 0.000000 0.000000 0.000000 0.343213 -18.513278 7.774631 58.893258 3.480087 15.590910 26.526569 58.681117 0.210892 0.113277 8.297112 0.104775 0.106366 8.299661 0.000000 0.000000 0.000000 0.000000 0.000000 0.000000 0.000000 
-1.773202 16.590004 25.061615 4.724067 2.249174 8.551874 -2.391299 14.935295 -4.030926 -26.896356 -4.750431 -7.473358 -9.529688 -4.730425 -10.182752 -0.158325 3.975425 10.265269 0.000000 0.000000 0.000000 11.150683 -9.853289 7.934619 0.184128 4.787560 -10.653977 -2.788276 -18.160680 44.945030 13.892594 -31.937788 24.363680 0.000000 0.000000 0.000000 -4.448810 -0.410929 2.301506 4.358604 -1.623789 12.415382 -1.303236 -0.292487 -16.067279 2.381252 -0.205858 -4.665804 0.370377 0.020700 0.137719 0.000000 0.000000 0.000000 -4.028620 14.368252 9.640622 -66.468340 -2.210403 21.819231 -32.097975 -62.489945 0.663030 -1.931742 -10.344277 0.330951 -1.950663 -10.354455 0.000000 0.000000 0.000000 0.000000 0.000000 0.000000 0.000000 0.249015 -18.379124 7.778346 59.100930 3.495782 15.729252 26.358728 59.202231 0.215613 0.104590 8.418694 0.107108 0.097484 8.421290 0.000000 0.000000 0.000000 0.000000 0.000000 0.000000 0.000000 
